<?xml version="1.0" encoding="UTF-8"?>
<svg id="Layer_2" data-name="Layer 2" xmlns="http://www.w3.org/2000/svg" viewBox="0 0 194.54 72.51">
  <defs>
    <style>
      .cls-1 {
        fill: #00c700;
      }

      .cls-1, .cls-2, .cls-3 {
        stroke-width: 0px;
      }

      .cls-2 {
        fill: #0c0c0c;
      }

      .cls-3 {
        fill: #fff;
      }
    </style>
  </defs>
  <g id="Layer_1-2" data-name="Layer 1">
    <g>
      <rect class="cls-2" width="73.14" height="72.51"/>
      <g>
        <path class="cls-2" d="M84.24,25.67v-6.76h-2.45v-1.96h7.13v1.96h-2.43v6.76h-2.25Z"/>
        <path class="cls-2" d="M90,25.67v-8.73h4.94c1.73,0,2.55,1.12,2.55,2.22s-.67,1.82-1.49,2c.93.14,1.66,1.03,1.66,2.13,0,1.27-.85,2.37-2.56,2.37h-5.1ZM95.2,19.56c0-.42-.31-.72-.77-.72h-2.18v1.45h2.18c.46,0,.77-.3.77-.73ZM95.37,22.99c0-.43-.31-.79-.86-.79h-2.26v1.57h2.26c.54,0,.86-.31.86-.78Z"/>
        <path class="cls-2" d="M98.89,25.67v-8.73h2.25v8.73h-2.25Z"/>
        <path class="cls-2" d="M102.71,25.67v-8.73h2.25v6.76h3.51v1.96h-5.76Z"/>
        <path class="cls-2" d="M109.63,25.67v-8.73h2.25v8.73h-2.25Z"/>
        <path class="cls-2" d="M112.82,24.44l1.19-1.69c.63.63,1.6,1.15,2.79,1.15.77,0,1.24-.3,1.24-.72,0-1.19-4.94-.24-4.94-3.6,0-1.46,1.24-2.77,3.48-2.77,1.4,0,2.62.42,3.54,1.22l-1.23,1.61c-.73-.6-1.69-.9-2.55-.9-.65,0-.94.26-.94.63,0,1.11,4.93.3,4.93,3.54,0,1.75-1.3,2.92-3.64,2.92-1.77,0-3-.55-3.87-1.39Z"/>
        <path class="cls-2" d="M121.38,25.67v-8.73h2.25v8.73h-2.25Z"/>
      </g>
      <g>
        <path class="cls-2" d="M81.67,40.14l1.19-1.69c.63.63,1.6,1.15,2.79,1.15.77,0,1.24-.3,1.24-.72,0-1.19-4.94-.24-4.94-3.6,0-1.46,1.24-2.77,3.48-2.77,1.4,0,2.62.42,3.54,1.22l-1.23,1.61c-.73-.6-1.69-.9-2.55-.9-.65,0-.94.26-.94.63,0,1.11,4.93.3,4.93,3.54,0,1.75-1.3,2.92-3.64,2.92-1.77,0-3-.55-3.87-1.39Z"/>
        <path class="cls-2" d="M89.78,37.01c0-2.69,2.04-4.51,4.72-4.51,2.11,0,3.23,1.19,3.81,2.34l-1.94.92c-.29-.69-1.03-1.27-1.87-1.27-1.43,0-2.43,1.1-2.43,2.52s1.01,2.52,2.43,2.52c.84,0,1.58-.58,1.87-1.27l1.94.92c-.56,1.12-1.7,2.34-3.81,2.34-2.68,0-4.72-1.83-4.72-4.51Z"/>
        <path class="cls-2" d="M105.15,41.37v-3.51h-3.62v3.51h-2.25v-8.73h2.25v3.26h3.62v-3.26h2.25v8.73h-2.25Z"/>
        <path class="cls-2" d="M108.52,37.01c0-2.66,2-4.51,4.67-4.51s4.66,1.86,4.66,4.51-1.99,4.51-4.66,4.51-4.67-1.86-4.67-4.51ZM115.56,37.01c0-1.43-.93-2.52-2.37-2.52s-2.38,1.1-2.38,2.52.93,2.52,2.38,2.52,2.37-1.11,2.37-2.52Z"/>
        <path class="cls-2" d="M118.54,37.01c0-2.66,2-4.51,4.67-4.51s4.66,1.86,4.66,4.51-1.99,4.51-4.66,4.51-4.67-1.86-4.67-4.51ZM125.58,37.01c0-1.43-.93-2.52-2.37-2.52s-2.38,1.1-2.38,2.52.93,2.52,2.38,2.52,2.37-1.11,2.37-2.52Z"/>
        <path class="cls-2" d="M129,41.37v-8.73h2.25v6.76h3.51v1.96h-5.76Z"/>
        <path class="cls-2" d="M138.83,37.01c0-2.66,2-4.51,4.67-4.51s4.66,1.86,4.66,4.51-1.99,4.51-4.66,4.51-4.67-1.86-4.67-4.51ZM145.87,37.01c0-1.43-.93-2.52-2.37-2.52s-2.38,1.1-2.38,2.52.93,2.52,2.38,2.52,2.37-1.11,2.37-2.52Z"/>
        <path class="cls-2" d="M149.29,41.37v-8.73h6.4v1.96h-4.15v1.36h4.06v1.96h-4.06v3.44h-2.25Z"/>
      </g>
      <g>
        <path class="cls-2" d="M81.85,52.71c0-2.69,2.04-4.51,4.72-4.51,2.11,0,3.23,1.19,3.81,2.34l-1.94.92c-.29-.69-1.03-1.27-1.87-1.27-1.43,0-2.43,1.1-2.43,2.52s1.01,2.52,2.43,2.52c.84,0,1.58-.58,1.87-1.27l1.94.92c-.56,1.12-1.7,2.34-3.81,2.34-2.68,0-4.72-1.83-4.72-4.51Z"/>
        <path class="cls-2" d="M90.9,52.71c0-2.66,2-4.51,4.67-4.51s4.66,1.86,4.66,4.51-1.99,4.51-4.66,4.51-4.67-1.86-4.67-4.51ZM97.94,52.71c0-1.43-.93-2.52-2.37-2.52s-2.38,1.1-2.38,2.52.93,2.52,2.38,2.52,2.37-1.11,2.37-2.52Z"/>
        <path class="cls-2" d="M109.02,57.07v-5.68l-2.21,5.68h-.99l-2.2-5.68v5.68h-2.25v-8.73h3.13l1.82,4.74,1.83-4.74h3.13v8.73h-2.25Z"/>
        <path class="cls-2" d="M120.49,57.07v-5.68l-2.21,5.68h-.99l-2.2-5.68v5.68h-2.25v-8.73h3.13l1.82,4.74,1.83-4.74h3.13v8.73h-2.25Z"/>
        <path class="cls-2" d="M124.31,53.53v-5.19h2.29v5.11c0,1.03.61,1.78,1.84,1.78s1.83-.75,1.83-1.78v-5.11h2.28v5.18c0,2.17-1.32,3.7-4.11,3.7s-4.13-1.54-4.13-3.69Z"/>
        <path class="cls-2" d="M140.06,57.07l-3.69-5.05v5.05h-2.25v-8.73h2.32l3.53,4.8v-4.8h2.26v8.73h-2.17Z"/>
        <path class="cls-2" d="M143.8,57.07v-8.73h2.25v8.73h-2.25Z"/>
        <path class="cls-2" d="M147.17,52.71c0-2.69,2.04-4.51,4.72-4.51,2.11,0,3.23,1.19,3.81,2.34l-1.94.92c-.29-.69-1.03-1.27-1.87-1.27-1.43,0-2.43,1.1-2.43,2.52s1.01,2.52,2.43,2.52c.84,0,1.58-.58,1.87-1.27l1.94.92c-.56,1.12-1.7,2.34-3.81,2.34-2.68,0-4.72-1.83-4.72-4.51Z"/>
        <path class="cls-2" d="M162.49,57.07l-.43-1.26h-3.44l-.43,1.26h-2.55l3.28-8.73h2.83l3.3,8.73h-2.55ZM160.33,50.56l-1.11,3.28h2.22l-1.11-3.28Z"/>
        <path class="cls-2" d="M166.83,57.07v-6.76h-2.45v-1.96h7.13v1.96h-2.43v6.76h-2.25Z"/>
        <path class="cls-2" d="M172.59,57.07v-8.73h2.25v8.73h-2.25Z"/>
        <path class="cls-2" d="M175.96,52.71c0-2.66,2-4.51,4.67-4.51s4.66,1.86,4.66,4.51-1.99,4.51-4.66,4.51-4.67-1.86-4.67-4.51ZM183,52.71c0-1.43-.93-2.52-2.37-2.52s-2.38,1.1-2.38,2.52.93,2.52,2.38,2.52,2.37-1.11,2.37-2.52Z"/>
        <path class="cls-2" d="M192.37,57.07l-3.69-5.05v5.05h-2.25v-8.73h2.32l3.53,4.8v-4.8h2.26v8.73h-2.17Z"/>
      </g>
      <rect class="cls-3" x="50.93" y="52.14" width="0" height="0" transform="translate(-21.95 51.18) rotate(-44.91)"/>
      <polygon class="cls-3" points="20.98 52.14 21 52.16 21.01 52.14 21 52.13 20.98 52.14"/>
      <g>
        <polygon class="cls-1" points="59.33 36.53 59.32 36.53 58.22 37.63 51.53 44.32 44.82 37.62 43.73 36.53 43.71 36.53 39.3 36.53 39.3 39.92 39.3 56.55 39.3 56.56 39.31 56.55 44.82 56.55 44.82 51.03 44.82 45.45 47.62 48.24 51.52 52.14 55.42 48.24 55.42 48.23 58.22 45.44 58.22 51.02 58.22 51.03 58.22 56.55 63.73 56.55 63.79 56.61 63.79 56.6 63.79 56.55 63.79 39.86 63.79 36.53 59.33 36.53"/>
        <polygon class="cls-1" points="33.78 39.92 33.78 36.53 29.39 36.53 29.37 36.53 28.27 37.62 21.58 44.31 14.88 37.61 13.8 36.53 13.77 36.53 9.35 36.53 9.35 39.91 9.35 56.55 9.35 56.56 9.35 56.58 9.38 56.55 14.88 56.55 14.88 51.05 14.88 51.03 14.88 45.44 17.68 48.24 17.69 48.24 21.57 52.13 25.47 48.23 28.27 45.43 28.27 51.03 28.27 56.55 33.78 56.55 33.79 56.55 33.78 56.54 33.78 39.92"/>
        <path class="cls-1" d="M51.55,34.53c5.38,0,9.76-4.38,9.76-9.76s-4.38-9.76-9.76-9.76-9.76,4.38-9.76,9.76,4.38,9.76,9.76,9.76M47.52,24.77c0-2.22,1.81-4.03,4.03-4.03s4.03,1.81,4.03,4.03-1.81,4.03-4.03,4.03-4.03-1.81-4.03-4.03"/>
        <path class="cls-1" d="M21.38,34.42c3.56,0,6.81-1.95,8.5-5.09l.14-.26-5.05-2.71-.14.26c-.68,1.28-2.01,2.07-3.45,2.07-2.16,0-3.92-1.76-3.92-3.92s1.76-3.92,3.92-3.92c1.44,0,2.76.79,3.45,2.07l.14.26,5.05-2.71-.14-.26c-1.68-3.14-4.94-5.09-8.5-5.09-5.32,0-9.65,4.33-9.65,9.65s4.33,9.65,9.65,9.65"/>
      </g>
    </g>
  </g>
</svg>